<svg xmlns="http://www.w3.org/2000/svg" xmlns:xlink="http://www.w3.org/1999/xlink" version="1.1" width="35" height="30" enable-background="new 0 0 384.002 192.001" xml:space="preserve" style=""><rect id="backgroundrect" width="100%" height="100%" x="0" y="0" fill="none" stroke="none"/>

<g class="currentLayer" style=""><title>Layer 1</title><g id="Artwork" class="">
	<g id="svg_1">
		<g id="svg_2">
			<g id="svg_3">
				<g id="svg_4">
					<circle fill="#FFFFFF" cx="19.248992919921875" cy="1.6200027465820312" r="1.6200000047683716" id="svg_5"/>
					<circle fill="#FFFFFF" cx="23.699981689453125" cy="6.0720062255859375" r="1.7999999523162842" id="svg_6"/>
					<circle fill="#FFFFFF" cx="28.15399169921875" cy="10.524002075195312" r="1.9800000190734863" id="svg_7"/>
					<circle fill="#FFFFFF" cx="32.60498046875" cy="14.977005004882812" r="2.1600000858306885" id="svg_8"/>
					<circle fill="#FFFFFF" cx="10.344985961914062" cy="1.6200027465820312" r="1.440000057220459" id="svg_9"/>
					<circle fill="#FFFFFF" cx="14.795989990234375" cy="6.0720062255859375" r="1.621000051498413" id="svg_10"/>
					<circle fill="#FFFFFF" cx="19.248992919921875" cy="10.524002075195312" r="1.7999999523162842" id="svg_11"/>
					<circle fill="#FFFFFF" cx="23.70098876953125" cy="14.977005004882812" r="1.9800000190734863" id="svg_12"/>
					<circle fill="#FFFFFF" cx="28.152984619140625" cy="19.429000854492188" r="2.1589999198913574" id="svg_13"/>
					<circle fill="#FFFFFF" cx="1.4399871826171875" cy="1.6200027465820312" r="1.2610000371932983" id="svg_14"/>
					<circle fill="#FFFFFF" cx="5.8919830322265625" cy="6.0720062255859375" r="1.440000057220459" id="svg_15"/>
					<circle fill="#FFFFFF" cx="10.344985961914062" cy="10.523002624511719" r="1.6200000047683716" id="svg_16"/>
					<circle fill="#FFFFFF" cx="14.796981811523438" cy="14.976005554199219" r="1.7999999523162842" id="svg_17"/>
					<circle fill="#FFFFFF" cx="19.24798583984375" cy="19.428001403808594" r="1.9800000190734863" id="svg_18"/>
					<circle fill="#FFFFFF" cx="23.70098876953125" cy="23.8800048828125" r="2.1600000858306885" id="svg_19"/>
				</g>
				<g id="svg_20">
					<circle fill="#FFFFFF" cx="10.344985961914062" cy="19.428001403808594" r="1.440000057220459" id="svg_21"/>
					<circle fill="#FFFFFF" cx="5.8919830322265625" cy="23.8800048828125" r="1.440000057220459" id="svg_22"/>
					<circle fill="#FFFFFF" cx="1.4409942626953125" cy="28.332000732421875" r="1.440999984741211" id="svg_23"/>
					<circle fill="#FFFFFF" cx="10.344985961914062" cy="28.332000732421875" r="1.440999984741211" id="svg_24"/>
					<circle fill="#FFFFFF" cx="19.248992919921875" cy="28.33300018310547" r="1.440999984741211" id="svg_25"/>
					<circle fill="#FFFFFF" cx="14.796981811523438" cy="23.8800048828125" r="1.440000057220459" id="svg_26"/>
				</g>
			</g>
		</g>
	</g>
</g></g></svg>