<svg xmlns="http://www.w3.org/2000/svg" viewBox="0 0 42.13 62.44">
    <defs>
        <style>.cls-1{fill:#fff;}</style>
    </defs>
    <g id="Layer_2" data-name="Layer 2">
        <g id="Layer_3" data-name="Layer 3">
            <path class="cls-1" d="M27,44.27a.42.42,0,1,0-.41-.42A.41.41,0,0,0,27,44.27Z" />
            <path class="cls-1" d="M12,43.44a.42.42,0,1,0,.42.41A.42.42,0,0,0,12,43.44Z" />
            <path class="cls-1" d="M36.9,32.41a2.39,2.39,0,0,0,1.44-2.12,2.65,2.65,0,0,0-5.27,0,2.38,2.38,0,0,0,1.45,2.12.8.8,0,0,1,.47.74v6H34.8a14.93,14.93,0,0,0-7.59-9.4c.43-.91,1-2,1.55-3,1.53-2.65,6.12-7.65,8.78-11S44.06,6,41,4.23,33.35,8.78,29,14.9c-3,4.22-4.6,10.22-5.28,13.52a18.85,18.85,0,0,0-4.52-.54A18.2,18.2,0,0,0,12.74,29a85.18,85.18,0,0,1,.32-11.58C13.77,10.48,14.38-.2,10.2,0S5.51,11.63,5.81,18.05C6,22.61,7.9,28.22,9,31.08a15,15,0,0,0-5.41,8.05H2.88A2.75,2.75,0,0,0,0,41.71v5.17a2.75,2.75,0,0,0,2.88,2.59h.91a12.86,12.86,0,0,0,2.93,4.46.84.84,0,0,1,0,1.23,1.64,1.64,0,0,0-.12,2.34,17.11,17.11,0,0,0,12.54,4.94c5.42,0,10.21-2,13.14-5.6a.79.79,0,0,0-.1-1.12l-.62-.57a.83.83,0,0,1,0-1.21,13.17,13.17,0,0,0,2.94-4.47h1a2.74,2.74,0,0,0,2.87-2.59V41.71a2.53,2.53,0,0,0-1.47-2.23.81.81,0,0,1-.44-.73v-5.6A.8.8,0,0,1,36.9,32.41ZM30.36,17.34c3-4.89,6-8.84,7.21-8.09s-1.52,5.58-4.87,10.07a95.27,95.27,0,0,0-6.2,10.06l-1.59-.62A90.83,90.83,0,0,1,30.36,17.34Zm-16,13.17A.83.83,0,0,1,15,29.7a17.46,17.46,0,0,1,4.17-.48,17.34,17.34,0,0,1,4.17.48.83.83,0,0,1,.63.81V34a.84.84,0,0,1-1,.82,15.59,15.59,0,0,0-3.78-.45,16.74,16.74,0,0,0-3.79.43.83.83,0,0,1-1-.82Zm4.07,17.24c-.44-.32-1.08-.85-1.08-1.2,0-.54.72-1.19,1.7-1.19a1.4,1.4,0,0,1,1.5,1.09c0,.25-.57.89-1.08,1.28a.82.82,0,0,0-.33.66v1a2.09,2.09,0,0,0,1.5.7c.84-.06,1.41-1,1.41-1.06a.18.18,0,0,1,.26-.07.18.18,0,0,1,.07.25,2.49,2.49,0,0,1-1.71,1.25h-.12a2.18,2.18,0,0,1-1.11-.35.85.85,0,0,0-.94,0,1.86,1.86,0,0,1-1,.33c-1,0-1.7-1.23-1.73-1.29a.18.18,0,0,1,.07-.25.19.19,0,0,1,.26.08s.6,1.09,1.4,1.09a1.79,1.79,0,0,0,1.3-.7v-1A.84.84,0,0,0,18.45,47.75ZM7.92,18.23C7.24,11,8.47,5.92,10.23,5.85s1.5,6.53,1.36,11.83c-.09,3.64-.05,8.89,0,11.82l-1.5.8A86,86,0,0,1,7.92,18.23ZM1.49,41.71a1.27,1.27,0,0,1,1.39-1.29h.86a19.64,19.64,0,0,0-.38,3.79,7.87,7.87,0,0,0,0,.95H2.32a.83.83,0,0,1-.83-.83Zm1.39,6.47a1.35,1.35,0,0,1-1.44-1.3V46H2.73a.84.84,0,0,1,.83.71,13.84,13.84,0,0,0,.32,1.45Zm27.45,8.76A15.73,15.73,0,0,1,19.17,61.1,15.69,15.69,0,0,1,8,56.94a.82.82,0,0,1,0-1.19l.23-.21a.84.84,0,0,1,1-.07,18.2,18.2,0,0,0,9.87,2.62A18.17,18.17,0,0,0,29,55.47a.84.84,0,0,1,1,.07l.23.21A.82.82,0,0,1,30.33,56.94Zm-11.16.29c-8.91,0-14.86-5.22-14.86-13,0-6.35,3-11.25,7.91-13.55a.84.84,0,0,1,1.2.76v3.44a.83.83,0,0,1-.53.77c-4.51,1.85-7.62,5.69-7.62,10.09,0,5.9,5.61,9.91,13.9,9.91s13.9-4,13.9-9.91c0-4.4-3.11-8.24-7.62-10.09a.85.85,0,0,1-.53-.77V31.42a.85.85,0,0,1,1.21-.76C31,33,34,37.87,34,44.26,34,52,28.09,57.23,19.17,57.23ZM13.12,44.37a1.52,1.52,0,1,1-1.52-1.51A1.52,1.52,0,0,1,13.12,44.37Zm11.91,0a1.52,1.52,0,1,1,1.52,1.52A1.52,1.52,0,0,1,25,44.37Zm11.88,2.51a1.35,1.35,0,0,1-1.44,1.3h-1c.13-.47.24-1,.33-1.45a.84.84,0,0,1,.82-.71h1.3Zm0-5.17v2.62a.84.84,0,0,1-.84.83H35c0-.3,0-.6,0-.95a19.32,19.32,0,0,0-.39-3.79h.82A1.35,1.35,0,0,1,36.91,41.71Zm-1.2-10.34a1.08,1.08,0,1,1,1.2-1.08A1.13,1.13,0,0,1,35.71,31.37Z" />
        </g>
    </g>
</svg>
